{
	"asset":{
		"generator":"Khronos glTF Blender I/O v4.3.47",
		"version":"2.0"
	},
	"extensionsUsed":[
		"EXT_texture_webp"
	],
	"extensionsRequired":[
		"EXT_texture_webp"
	],
	"scene":0,
	"scenes":[
		{
			"name":"Scene",
			"nodes":[
				0,
				1,
				2,
				3,
				4,
				5,
				6,
				7,
				8,
				9,
				10,
				11,
				12,
				13,
				14,
				15,
				16,
				17,
				18,
				19,
				20,
				21,
				22,
				23,
				24,
				25,
				26,
				27,
				28,
				29,
				30,
				31,
				32,
				33,
				34,
				35,
				36,
				37,
				38,
				39
			]
		}
	],
	"nodes":[
		{
			"mesh":0,
			"name":"Chair",
			"translation":[
				2.539133071899414,
				0.5160359740257263,
				5.584555625915527
			]
		},
		{
			"mesh":1,
			"name":"Chair.001",
			"translation":[
				2.539133071899414,
				0.5160359740257263,
				4.212416648864746
			]
		},
		{
			"mesh":2,
			"name":"Desk",
			"translation":[
				1.3956809043884277,
				1.7921264171600342,
				4.898486614227295
			]
		},
		{
			"mesh":3,
			"name":"Desk.002",
			"translation":[
				-2.9494268894195557,
				0.42455995082855225,
				0.0959961786866188
			]
		},
		{
			"mesh":4,
			"name":"Desk.004",
			"rotation":[
				0,
				-0.7071065902709961,
				0,
				0.7071069478988647
			],
			"scale":[
				2.2868998050689697,
				2.2868998050689697,
				2.2868998050689697
			],
			"translation":[
				-9.581436157226562,
				1.7921264171600342,
				0.09599391371011734
			]
		},
		{
			"mesh":5,
			"name":"Dnask Flag",
			"translation":[
				6.193526268005371,
				3.66379451751709,
				5.799802780151367
			]
		},
		{
			"mesh":6,
			"name":"menu",
			"translation":[
				-7.294536590576172,
				3.168839931488037,
				-8.113977432250977
			]
		},
		{
			"mesh":7,
			"name":"World Map",
			"translation":[
				6.117761611938477,
				4.204472064971924,
				-3.6419150829315186
			]
		},
		{
			"mesh":8,
			"name":"sam",
			"translation":[
				3.200869560241699,
				3.854910373687744,
				-8.116981506347656
			]
		},
		{
			"mesh":9,
			"name":"Peace and love2",
			"translation":[
				-2.03466534614563,
				4.0836005210876465,
				-8.11397647857666
			]
		},
		{
			"mesh":10,
			"name":"Chair.018",
			"rotation":[
				0,
				0.7071067094802856,
				0,
				0.7071068286895752
			],
			"scale":[
				2.2868998050689697,
				2.2868998050689697,
				2.2868998050689697
			],
			"translation":[
				2.5391340255737305,
				0.5160359740257263,
				-4.020424842834473
			]
		},
		{
			"mesh":11,
			"name":"Chair.019",
			"rotation":[
				0,
				0.7071067094802856,
				0,
				0.7071068286895752
			],
			"scale":[
				2.2868998050689697,
				2.2868998050689697,
				2.2868998050689697
			],
			"translation":[
				2.5391340255737305,
				0.5160359740257263,
				-5.3925652503967285
			]
		},
		{
			"mesh":12,
			"name":"Desk.012",
			"rotation":[
				0,
				0.7071067094802856,
				0,
				0.7071068286895752
			],
			"scale":[
				2.2868998050689697,
				2.2868998050689697,
				2.2868998050689697
			],
			"translation":[
				1.3956823348999023,
				1.7921264171600342,
				-4.7064948081970215
			]
		},
		{
			"mesh":10,
			"name":"Chair.008",
			"rotation":[
				0,
				0.7071067094802856,
				0,
				0.7071068286895752
			],
			"scale":[
				2.2868998050689697,
				2.2868998050689697,
				2.2868998050689697
			],
			"translation":[
				-0.8912153244018555,
				0.5160359740257263,
				-5.3925652503967285
			]
		},
		{
			"mesh":11,
			"name":"Chair.009",
			"rotation":[
				0,
				0.7071067094802856,
				0,
				0.7071068286895752
			],
			"scale":[
				2.2868998050689697,
				2.2868998050689697,
				2.2868998050689697
			],
			"translation":[
				-0.8912153244018555,
				0.5160359740257263,
				-6.76470422744751
			]
		},
		{
			"mesh":13,
			"name":"Desk.007",
			"rotation":[
				0,
				0.7071067094802856,
				0,
				0.7071068286895752
			],
			"scale":[
				2.2868998050689697,
				2.2868998050689697,
				2.2868998050689697
			],
			"translation":[
				-2.0346672534942627,
				1.7921264171600342,
				-6.078636646270752
			]
		},
		{
			"mesh":10,
			"name":"Chair.014",
			"rotation":[
				0,
				0.7071067094802856,
				0,
				0.7071068286895752
			],
			"scale":[
				2.2868998050689697,
				2.2868998050689697,
				2.2868998050689697
			],
			"translation":[
				-4.321564674377441,
				0.5160359740257263,
				-5.3925652503967285
			]
		},
		{
			"mesh":11,
			"name":"Chair.015",
			"rotation":[
				0,
				0.7071067094802856,
				0,
				0.7071068286895752
			],
			"scale":[
				2.2868998050689697,
				2.2868998050689697,
				2.2868998050689697
			],
			"translation":[
				-4.321564674377441,
				0.5160359740257263,
				-6.76470422744751
			]
		},
		{
			"mesh":14,
			"name":"Desk.010",
			"rotation":[
				0,
				0.7071067094802856,
				0,
				0.7071068286895752
			],
			"scale":[
				2.2868998050689697,
				2.2868998050689697,
				2.2868998050689697
			],
			"translation":[
				-5.465017318725586,
				1.7921264171600342,
				-6.078636646270752
			]
		},
		{
			"mesh":10,
			"name":"Chair.016",
			"rotation":[
				0,
				0.7071067094802856,
				0,
				0.7071068286895752
			],
			"scale":[
				2.2868998050689697,
				2.2868998050689697,
				2.2868998050689697
			],
			"translation":[
				-4.321564674377441,
				0.5160359740257263,
				-1.733524203300476
			]
		},
		{
			"mesh":11,
			"name":"Chair.017",
			"rotation":[
				0,
				0.7071067094802856,
				0,
				0.7071068286895752
			],
			"scale":[
				2.2868998050689697,
				2.2868998050689697,
				2.2868998050689697
			],
			"translation":[
				-4.321564674377441,
				0.5160359740257263,
				-3.1056652069091797
			]
		},
		{
			"mesh":15,
			"name":"Desk.011",
			"rotation":[
				0,
				0.7071067094802856,
				0,
				0.7071068286895752
			],
			"scale":[
				2.2868998050689697,
				2.2868998050689697,
				2.2868998050689697
			],
			"translation":[
				-5.465017318725586,
				1.7921264171600342,
				-2.4195947647094727
			]
		},
		{
			"mesh":10,
			"name":"Chair.006",
			"rotation":[
				0,
				0.7071067094802856,
				0,
				0.7071068286895752
			],
			"scale":[
				2.2868998050689697,
				2.2868998050689697,
				2.2868998050689697
			],
			"translation":[
				-0.8912153244018555,
				0.5160359740257263,
				-1.733524203300476
			]
		},
		{
			"mesh":11,
			"name":"Chair.007",
			"rotation":[
				0,
				0.7071067094802856,
				0,
				0.7071068286895752
			],
			"scale":[
				2.2868998050689697,
				2.2868998050689697,
				2.2868998050689697
			],
			"translation":[
				-0.8912153244018555,
				0.5160359740257263,
				-3.1056652069091797
			]
		},
		{
			"mesh":16,
			"name":"Desk.006",
			"rotation":[
				0,
				0.7071067094802856,
				0,
				0.7071068286895752
			],
			"scale":[
				2.2868998050689697,
				2.2868998050689697,
				2.2868998050689697
			],
			"translation":[
				-2.034667730331421,
				1.7921264171600342,
				-2.4195947647094727
			]
		},
		{
			"mesh":10,
			"name":"Chair.004",
			"rotation":[
				0,
				0.7071067094802856,
				0,
				0.7071068286895752
			],
			"scale":[
				2.2868998050689697,
				2.2868998050689697,
				2.2868998050689697
			],
			"translation":[
				-0.8912162780761719,
				0.5160359740257263,
				3.2976553440093994
			]
		},
		{
			"mesh":11,
			"name":"Chair.005",
			"rotation":[
				0,
				0.7071067094802856,
				0,
				0.7071068286895752
			],
			"scale":[
				2.2868998050689697,
				2.2868998050689697,
				2.2868998050689697
			],
			"translation":[
				-0.8912153244018555,
				0.5160359740257263,
				1.9255168437957764
			]
		},
		{
			"mesh":17,
			"name":"Desk.005",
			"rotation":[
				0,
				0.7071067094802856,
				0,
				0.7071068286895752
			],
			"scale":[
				2.2868998050689697,
				2.2868998050689697,
				2.2868998050689697
			],
			"translation":[
				-2.034667730331421,
				1.7921264171600342,
				2.6115849018096924
			]
		},
		{
			"mesh":10,
			"name":"Chair.012",
			"rotation":[
				0,
				0.7071067094802856,
				0,
				0.7071068286895752
			],
			"scale":[
				2.2868998050689697,
				2.2868998050689697,
				2.2868998050689697
			],
			"translation":[
				-4.321566104888916,
				0.5160359740257263,
				3.2976553440093994
			]
		},
		{
			"mesh":11,
			"name":"Chair.013",
			"rotation":[
				0,
				0.7071067094802856,
				0,
				0.7071068286895752
			],
			"scale":[
				2.2868998050689697,
				2.2868998050689697,
				2.2868998050689697
			],
			"translation":[
				-4.321564674377441,
				0.5160359740257263,
				1.9255168437957764
			]
		},
		{
			"mesh":18,
			"name":"Desk.009",
			"rotation":[
				0,
				0.7071067094802856,
				0,
				0.7071068286895752
			],
			"scale":[
				2.2868998050689697,
				2.2868998050689697,
				2.2868998050689697
			],
			"translation":[
				-5.465018272399902,
				1.7921264171600342,
				2.6115849018096924
			]
		},
		{
			"mesh":10,
			"name":"Chair.010",
			"rotation":[
				0,
				0.7071067094802856,
				0,
				0.7071068286895752
			],
			"scale":[
				2.2868998050689697,
				2.2868998050689697,
				2.2868998050689697
			],
			"translation":[
				-4.321566104888916,
				0.5160359740257263,
				6.956695556640625
			]
		},
		{
			"mesh":11,
			"name":"Chair.011",
			"rotation":[
				0,
				0.7071067094802856,
				0,
				0.7071068286895752
			],
			"scale":[
				2.2868998050689697,
				2.2868998050689697,
				2.2868998050689697
			],
			"translation":[
				-4.321566104888916,
				0.5160359740257263,
				5.584554672241211
			]
		},
		{
			"mesh":19,
			"name":"Desk.008",
			"rotation":[
				0,
				0.7071067094802856,
				0,
				0.7071068286895752
			],
			"scale":[
				2.2868998050689697,
				2.2868998050689697,
				2.2868998050689697
			],
			"translation":[
				-5.465018272399902,
				1.7921264171600342,
				6.270625114440918
			]
		},
		{
			"mesh":10,
			"name":"Chair.002",
			"rotation":[
				0,
				0.7071067094802856,
				0,
				0.7071068286895752
			],
			"scale":[
				2.2868998050689697,
				2.2868998050689697,
				2.2868998050689697
			],
			"translation":[
				-0.8912162780761719,
				0.5160359740257263,
				6.956695556640625
			]
		},
		{
			"mesh":11,
			"name":"Chair.003",
			"rotation":[
				0,
				0.7071067094802856,
				0,
				0.7071068286895752
			],
			"scale":[
				2.2868998050689697,
				2.2868998050689697,
				2.2868998050689697
			],
			"translation":[
				-0.8912162780761719,
				0.5160359740257263,
				5.584554672241211
			]
		},
		{
			"mesh":20,
			"name":"Desk.003",
			"rotation":[
				0,
				0.7071067094802856,
				0,
				0.7071068286895752
			],
			"scale":[
				2.2868998050689697,
				2.2868998050689697,
				2.2868998050689697
			],
			"translation":[
				-2.034668445587158,
				1.7921264171600342,
				6.270625114440918
			]
		},
		{
			"mesh":11,
			"name":"Chair.021",
			"rotation":[
				0,
				0.7071067094802856,
				0,
				0.7071068286895752
			],
			"scale":[
				2.2868998050689697,
				2.2868998050689697,
				2.2868998050689697
			],
			"translation":[
				2.9965133666992188,
				0.5160359740257263,
				0.0959961786866188
			]
		},
		{
			"mesh":21,
			"name":"Desk.015",
			"rotation":[
				0,
				0.7071067094802856,
				0,
				0.7071068286895752
			],
			"scale":[
				2.2868998050689697,
				2.2868998050689697,
				2.2868998050689697
			],
			"translation":[
				1.8530611991882324,
				1.7921264171600342,
				0.0959961786866188
			]
		},
		{
			"mesh":11,
			"name":"Chair.022",
			"rotation":[
				0,
				-0.5735764503479004,
				0,
				0.8191520571708679
			],
			"scale":[
				2.2868993282318115,
				2.2868998050689697,
				2.2868993282318115
			],
			"translation":[
				-10.953575134277344,
				0.5160359740257263,
				1.9255144596099854
			]
		}
	],
	"materials":[
		{
			"doubleSided":true,
			"name":"Metalic_Gray",
			"pbrMetallicRoughness":{
				"baseColorFactor":[
					0.15588846802711487,
					0.15588846802711487,
					0.15588846802711487,
					1
				],
				"metallicFactor":0.30000001192092896,
				"roughnessFactor":0.30000001192092896
			}
		},
		{
			"doubleSided":true,
			"name":"Rubber_Black",
			"pbrMetallicRoughness":{
				"baseColorFactor":[
					0.010099188424646854,
					0.003510685171931982,
					0.003351909574121237,
					1
				],
				"metallicFactor":0.20000000298023224
			}
		},
		{
			"doubleSided":true,
			"name":"Wood",
			"pbrMetallicRoughness":{
				"baseColorTexture":{
					"index":0
				},
				"metallicFactor":0
			}
		},
		{
			"doubleSided":true,
			"name":"Wood_Brown",
			"pbrMetallicRoughness":{
				"baseColorTexture":{
					"index":1
				},
				"metallicFactor":0
			}
		},
		{
			"doubleSided":true,
			"name":"Beton_Black_Blue",
			"pbrMetallicRoughness":{
				"metallicFactor":0.10000000149011612
			}
		},
		{
			"alphaMode":"BLEND",
			"doubleSided":true,
			"name":"Glass",
			"pbrMetallicRoughness":{
				"baseColorFactor":[
					0.800000011920929,
					0.800000011920929,
					0.800000011920929,
					0.2415902018547058
				],
				"metallicFactor":0,
				"roughnessFactor":0.5
			}
		},
		{
			"doubleSided":true,
			"name":"Wood_White",
			"pbrMetallicRoughness":{
				"baseColorTexture":{
					"index":2
				},
				"metallicFactor":0
			}
		},
		{
			"doubleSided":true,
			"name":"Walls_white",
			"pbrMetallicRoughness":{
				"metallicFactor":0,
				"roughnessFactor":0.5
			}
		},
		{
			"doubleSided":true,
			"name":"Wood_Brown_Light",
			"pbrMetallicRoughness":{
				"baseColorTexture":{
					"index":3
				},
				"metallicFactor":0
			}
		},
		{
			"doubleSided":true,
			"name":"Green",
			"pbrMetallicRoughness":{
				"baseColorFactor":[
					0.0008937318925745785,
					0.19134870171546936,
					0.0155997509136796,
					1
				],
				"metallicFactor":0,
				"roughnessFactor":0.5
			}
		},
		{
			"alphaMode":"BLEND",
			"doubleSided":true,
			"name":"Dnask Flag",
			"pbrMetallicRoughness":{
				"baseColorTexture":{
					"index":4
				},
				"metallicFactor":0,
				"roughnessFactor":0.5
			}
		},
		{
			"alphaMode":"BLEND",
			"doubleSided":true,
			"name":"menu",
			"pbrMetallicRoughness":{
				"baseColorTexture":{
					"index":5
				},
				"metallicFactor":0,
				"roughnessFactor":0.5
			}
		},
		{
			"alphaMode":"BLEND",
			"doubleSided":true,
			"name":"World Map",
			"pbrMetallicRoughness":{
				"baseColorTexture":{
					"index":6
				},
				"metallicFactor":0,
				"roughnessFactor":0.5
			}
		},
		{
			"alphaMode":"BLEND",
			"doubleSided":true,
			"name":"sam",
			"pbrMetallicRoughness":{
				"baseColorTexture":{
					"index":7
				},
				"metallicFactor":0,
				"roughnessFactor":0.5
			}
		},
		{
			"alphaMode":"BLEND",
			"doubleSided":true,
			"name":"Peace and love2",
			"pbrMetallicRoughness":{
				"baseColorTexture":{
					"index":8
				},
				"metallicFactor":0,
				"roughnessFactor":0.5
			}
		}
	],
	"meshes":[
		{
			"name":"Cylinder.003",
			"primitives":[
				{
					"attributes":{
						"POSITION":0,
						"NORMAL":1,
						"TEXCOORD_0":2
					},
					"indices":3,
					"material":0
				},
				{
					"attributes":{
						"POSITION":4,
						"NORMAL":5,
						"TEXCOORD_0":6
					},
					"indices":7,
					"material":1
				},
				{
					"attributes":{
						"POSITION":8,
						"NORMAL":9,
						"TEXCOORD_0":10
					},
					"indices":11,
					"material":2
				}
			]
		},
		{
			"name":"Cylinder.002",
			"primitives":[
				{
					"attributes":{
						"POSITION":12,
						"NORMAL":13,
						"TEXCOORD_0":14
					},
					"indices":3,
					"material":0
				},
				{
					"attributes":{
						"POSITION":15,
						"NORMAL":16,
						"TEXCOORD_0":17
					},
					"indices":7,
					"material":1
				},
				{
					"attributes":{
						"POSITION":18,
						"NORMAL":19,
						"TEXCOORD_0":20
					},
					"indices":11,
					"material":2
				}
			]
		},
		{
			"name":"Plane.002",
			"primitives":[
				{
					"attributes":{
						"POSITION":21,
						"NORMAL":22,
						"TEXCOORD_0":23
					},
					"indices":24,
					"material":0
				},
				{
					"attributes":{
						"POSITION":25,
						"NORMAL":26,
						"TEXCOORD_0":27
					},
					"indices":28,
					"material":1
				},
				{
					"attributes":{
						"POSITION":29,
						"NORMAL":30,
						"TEXCOORD_0":31
					},
					"indices":32,
					"material":3
				}
			]
		},
		{
			"name":"Plane.007",
			"primitives":[
				{
					"attributes":{
						"POSITION":33,
						"NORMAL":34,
						"TEXCOORD_0":35
					},
					"indices":36,
					"material":4
				},
				{
					"attributes":{
						"POSITION":37,
						"NORMAL":38,
						"TEXCOORD_0":39
					},
					"indices":40,
					"material":5
				},
				{
					"attributes":{
						"POSITION":41,
						"NORMAL":42,
						"TEXCOORD_0":43
					},
					"indices":44,
					"material":6
				},
				{
					"attributes":{
						"POSITION":45,
						"NORMAL":46,
						"TEXCOORD_0":47
					},
					"indices":48,
					"material":0
				},
				{
					"attributes":{
						"POSITION":49,
						"NORMAL":50,
						"TEXCOORD_0":51
					},
					"indices":52,
					"material":7
				},
				{
					"attributes":{
						"POSITION":53,
						"NORMAL":54,
						"TEXCOORD_0":55
					},
					"indices":56,
					"material":8
				},
				{
					"attributes":{
						"POSITION":57,
						"NORMAL":58,
						"TEXCOORD_0":59
					},
					"indices":60,
					"material":3
				},
				{
					"attributes":{
						"POSITION":61,
						"NORMAL":62,
						"TEXCOORD_0":63
					},
					"indices":64,
					"material":9
				}
			]
		},
		{
			"name":"Plane.001",
			"primitives":[
				{
					"attributes":{
						"POSITION":65,
						"NORMAL":66,
						"TEXCOORD_0":67
					},
					"indices":68,
					"material":0
				},
				{
					"attributes":{
						"POSITION":69,
						"NORMAL":70,
						"TEXCOORD_0":71
					},
					"indices":72,
					"material":1
				},
				{
					"attributes":{
						"POSITION":73,
						"NORMAL":74,
						"TEXCOORD_0":75
					},
					"indices":32,
					"material":2
				}
			]
		},
		{
			"name":"Dnask Flag",
			"primitives":[
				{
					"attributes":{
						"POSITION":76,
						"NORMAL":77,
						"TEXCOORD_0":78
					},
					"indices":79,
					"material":10
				},
				{
					"attributes":{
						"POSITION":80,
						"NORMAL":81,
						"TEXCOORD_0":82
					},
					"indices":83,
					"material":8
				},
				{
					"attributes":{
						"POSITION":84,
						"NORMAL":85,
						"TEXCOORD_0":86
					},
					"indices":79,
					"material":5
				}
			]
		},
		{
			"name":"menu",
			"primitives":[
				{
					"attributes":{
						"POSITION":87,
						"NORMAL":88,
						"TEXCOORD_0":89
					},
					"indices":90,
					"material":11
				}
			]
		},
		{
			"name":"World Map",
			"primitives":[
				{
					"attributes":{
						"POSITION":91,
						"NORMAL":92,
						"TEXCOORD_0":93
					},
					"indices":79,
					"material":12
				},
				{
					"attributes":{
						"POSITION":94,
						"NORMAL":95,
						"TEXCOORD_0":96
					},
					"indices":83,
					"material":8
				},
				{
					"attributes":{
						"POSITION":97,
						"NORMAL":98,
						"TEXCOORD_0":99
					},
					"indices":79,
					"material":5
				}
			]
		},
		{
			"name":"sam",
			"primitives":[
				{
					"attributes":{
						"POSITION":100,
						"NORMAL":101,
						"TEXCOORD_0":102
					},
					"indices":79,
					"material":13
				},
				{
					"attributes":{
						"POSITION":103,
						"NORMAL":104,
						"TEXCOORD_0":105
					},
					"indices":106,
					"material":8
				},
				{
					"attributes":{
						"POSITION":107,
						"NORMAL":108,
						"TEXCOORD_0":109
					},
					"indices":79,
					"material":5
				}
			]
		},
		{
			"name":"Peace and love2",
			"primitives":[
				{
					"attributes":{
						"POSITION":110,
						"NORMAL":111,
						"TEXCOORD_0":112
					},
					"indices":79,
					"material":14
				},
				{
					"attributes":{
						"POSITION":113,
						"NORMAL":114,
						"TEXCOORD_0":115
					},
					"indices":106,
					"material":8
				},
				{
					"attributes":{
						"POSITION":116,
						"NORMAL":117,
						"TEXCOORD_0":118
					},
					"indices":79,
					"material":5
				}
			]
		},
		{
			"name":"Cylinder.006",
			"primitives":[
				{
					"attributes":{
						"POSITION":119,
						"NORMAL":120,
						"TEXCOORD_0":121
					},
					"indices":122,
					"material":0
				},
				{
					"attributes":{
						"POSITION":123,
						"NORMAL":124,
						"TEXCOORD_0":125
					},
					"indices":126,
					"material":1
				},
				{
					"attributes":{
						"POSITION":127,
						"NORMAL":128,
						"TEXCOORD_0":129
					},
					"indices":130,
					"material":2
				}
			]
		},
		{
			"name":"Cylinder.001",
			"primitives":[
				{
					"attributes":{
						"POSITION":131,
						"NORMAL":132,
						"TEXCOORD_0":133
					},
					"indices":122,
					"material":0
				},
				{
					"attributes":{
						"POSITION":134,
						"NORMAL":135,
						"TEXCOORD_0":136
					},
					"indices":126,
					"material":1
				},
				{
					"attributes":{
						"POSITION":137,
						"NORMAL":138,
						"TEXCOORD_0":139
					},
					"indices":130,
					"material":2
				}
			]
		},
		{
			"name":"Plane.013",
			"primitives":[
				{
					"attributes":{
						"POSITION":140,
						"NORMAL":141,
						"TEXCOORD_0":142
					},
					"indices":143,
					"material":0
				},
				{
					"attributes":{
						"POSITION":144,
						"NORMAL":145,
						"TEXCOORD_0":146
					},
					"indices":72,
					"material":1
				},
				{
					"attributes":{
						"POSITION":147,
						"NORMAL":148,
						"TEXCOORD_0":149
					},
					"indices":32,
					"material":3
				}
			]
		},
		{
			"name":"Plane.011",
			"primitives":[
				{
					"attributes":{
						"POSITION":150,
						"NORMAL":151,
						"TEXCOORD_0":152
					},
					"indices":143,
					"material":0
				},
				{
					"attributes":{
						"POSITION":153,
						"NORMAL":154,
						"TEXCOORD_0":155
					},
					"indices":72,
					"material":1
				},
				{
					"attributes":{
						"POSITION":156,
						"NORMAL":157,
						"TEXCOORD_0":158
					},
					"indices":32,
					"material":3
				}
			]
		},
		{
			"name":"Plane.010",
			"primitives":[
				{
					"attributes":{
						"POSITION":159,
						"NORMAL":160,
						"TEXCOORD_0":161
					},
					"indices":143,
					"material":0
				},
				{
					"attributes":{
						"POSITION":162,
						"NORMAL":163,
						"TEXCOORD_0":164
					},
					"indices":72,
					"material":1
				},
				{
					"attributes":{
						"POSITION":165,
						"NORMAL":166,
						"TEXCOORD_0":167
					},
					"indices":32,
					"material":3
				}
			]
		},
		{
			"name":"Plane.009",
			"primitives":[
				{
					"attributes":{
						"POSITION":168,
						"NORMAL":169,
						"TEXCOORD_0":170
					},
					"indices":143,
					"material":0
				},
				{
					"attributes":{
						"POSITION":171,
						"NORMAL":172,
						"TEXCOORD_0":173
					},
					"indices":72,
					"material":1
				},
				{
					"attributes":{
						"POSITION":174,
						"NORMAL":175,
						"TEXCOORD_0":176
					},
					"indices":32,
					"material":3
				}
			]
		},
		{
			"name":"Plane.012",
			"primitives":[
				{
					"attributes":{
						"POSITION":177,
						"NORMAL":178,
						"TEXCOORD_0":179
					},
					"indices":143,
					"material":0
				},
				{
					"attributes":{
						"POSITION":180,
						"NORMAL":181,
						"TEXCOORD_0":182
					},
					"indices":72,
					"material":1
				},
				{
					"attributes":{
						"POSITION":183,
						"NORMAL":184,
						"TEXCOORD_0":185
					},
					"indices":32,
					"material":3
				}
			]
		},
		{
			"name":"Plane.008",
			"primitives":[
				{
					"attributes":{
						"POSITION":186,
						"NORMAL":187,
						"TEXCOORD_0":188
					},
					"indices":143,
					"material":0
				},
				{
					"attributes":{
						"POSITION":189,
						"NORMAL":190,
						"TEXCOORD_0":191
					},
					"indices":72,
					"material":1
				},
				{
					"attributes":{
						"POSITION":192,
						"NORMAL":193,
						"TEXCOORD_0":194
					},
					"indices":32,
					"material":3
				}
			]
		},
		{
			"name":"Plane.015",
			"primitives":[
				{
					"attributes":{
						"POSITION":195,
						"NORMAL":196,
						"TEXCOORD_0":197
					},
					"indices":143,
					"material":0
				},
				{
					"attributes":{
						"POSITION":198,
						"NORMAL":199,
						"TEXCOORD_0":200
					},
					"indices":72,
					"material":1
				},
				{
					"attributes":{
						"POSITION":201,
						"NORMAL":202,
						"TEXCOORD_0":203
					},
					"indices":32,
					"material":3
				}
			]
		},
		{
			"name":"Plane.004",
			"primitives":[
				{
					"attributes":{
						"POSITION":204,
						"NORMAL":205,
						"TEXCOORD_0":206
					},
					"indices":143,
					"material":0
				},
				{
					"attributes":{
						"POSITION":207,
						"NORMAL":208,
						"TEXCOORD_0":209
					},
					"indices":72,
					"material":1
				},
				{
					"attributes":{
						"POSITION":210,
						"NORMAL":211,
						"TEXCOORD_0":212
					},
					"indices":32,
					"material":3
				}
			]
		},
		{
			"name":"Plane.005",
			"primitives":[
				{
					"attributes":{
						"POSITION":213,
						"NORMAL":214,
						"TEXCOORD_0":215
					},
					"indices":143,
					"material":0
				},
				{
					"attributes":{
						"POSITION":216,
						"NORMAL":217,
						"TEXCOORD_0":218
					},
					"indices":72,
					"material":1
				},
				{
					"attributes":{
						"POSITION":219,
						"NORMAL":220,
						"TEXCOORD_0":221
					},
					"indices":32,
					"material":3
				}
			]
		},
		{
			"name":"Plane.014",
			"primitives":[
				{
					"attributes":{
						"POSITION":222,
						"NORMAL":223,
						"TEXCOORD_0":224
					},
					"indices":143,
					"material":0
				},
				{
					"attributes":{
						"POSITION":225,
						"NORMAL":226,
						"TEXCOORD_0":227
					},
					"indices":72,
					"material":1
				},
				{
					"attributes":{
						"POSITION":228,
						"NORMAL":229,
						"TEXCOORD_0":230
					},
					"indices":32,
					"material":3
				}
			]
		}
	],
	"textures":[
		{
			"sampler":0,
			"source":0
		},
		{
			"sampler":0,
			"source":0
		},
		{
			"sampler":0,
			"source":0
		},
		{
			"sampler":0,
			"source":0
		},
		{
			"extensions":{
				"EXT_texture_webp":{
					"source":1
				}
			},
			"sampler":1
		},
		{
			"extensions":{
				"EXT_texture_webp":{
					"source":2
				}
			},
			"sampler":1
		},
		{
			"sampler":1,
			"source":3
		},
		{
			"extensions":{
				"EXT_texture_webp":{
					"source":4
				}
			},
			"sampler":1
		},
		{
			"sampler":1,
			"source":5
		}
	],
	"images":[
		{
			"mimeType":"image/jpeg",
			"name":"WoodFloor040_2K-JPG_Color",
			"uri":"../../../Downloads/Textures/Textures/Wood_Textures/WoodFloor040_2K-JPG_Color.jpg"
		},
		{
			"mimeType":"image/webp",
			"name":"Dnask Flag",
			"uri":"../../../Downloads/Textures/Textures/Wood_Textures/Dnask%20Flag.webp"
		},
		{
			"mimeType":"image/webp",
			"name":"menu",
			"uri":"../../../Downloads/Textures/Textures/Wood_Textures/menu.webp"
		},
		{
			"mimeType":"image/png",
			"name":"World Map",
			"uri":"../../../Downloads/Textures/Textures/Wood_Textures/World%20Map.png"
		},
		{
			"mimeType":"image/webp",
			"name":"sam",
			"uri":"../../../Downloads/Textures/Textures/Wood_Textures/sam.webp"
		},
		{
			"mimeType":"image/png",
			"name":"Peace and love2",
			"uri":"../../../Downloads/Textures/Textures/Wood_Textures/Peace%20and%20love2.png"
		}
	],
	"accessors":[
		{
			"bufferView":0,
			"componentType":5126,
			"count":2395,
			"max":[
				0.4885183274745941,
				1.6835640668869019,
				0.4919225871562958
			],
			"min":[
				-0.46800321340560913,
				-0.04903889074921608,
				-0.4919225871562958
			],
			"type":"VEC3"
		},
		{
			"bufferView":1,
			"componentType":5126,
			"count":2395,
			"type":"VEC3"
		},
		{
			"bufferView":2,
			"componentType":5126,
			"count":2395,
			"type":"VEC2"
		},
		{
			"bufferView":3,
			"componentType":5123,
			"count":9156,
			"type":"SCALAR"
		},
		{
			"bufferView":4,
			"componentType":5126,
			"count":800,
			"max":[
				0.4885183274745941,
				1.6876094341278076,
				0.5046199560165405
			],
			"min":[
				-0.48006489872932434,
				-0.09516235440969467,
				-0.5046199560165405
			],
			"type":"VEC3"
		},
		{
			"bufferView":5,
			"componentType":5126,
			"count":800,
			"type":"VEC3"
		},
		{
			"bufferView":6,
			"componentType":5126,
			"count":800,
			"type":"VEC2"
		},
		{
			"bufferView":7,
			"componentType":5123,
			"count":2556,
			"type":"SCALAR"
		},
		{
			"bufferView":8,
			"componentType":5126,
			"count":492,
			"max":[
				0.4299706816673279,
				1.734357476234436,
				0.46478453278541565
			],
			"min":[
				-0.4948486387729645,
				0.8096572756767273,
				-0.46478453278541565
			],
			"type":"VEC3"
		},
		{
			"bufferView":9,
			"componentType":5126,
			"count":492,
			"type":"VEC3"
		},
		{
			"bufferView":10,
			"componentType":5126,
			"count":492,
			"type":"VEC2"
		},
		{
			"bufferView":11,
			"componentType":5123,
			"count":1632,
			"type":"SCALAR"
		},
		{
			"bufferView":12,
			"componentType":5126,
			"count":2395,
			"max":[
				0.4885183274745941,
				1.6835640668869019,
				0.4919225871562958
			],
			"min":[
				-0.46800321340560913,
				-0.04903889074921608,
				-0.4919225871562958
			],
			"type":"VEC3"
		},
		{
			"bufferView":13,
			"componentType":5126,
			"count":2395,
			"type":"VEC3"
		},
		{
			"bufferView":14,
			"componentType":5126,
			"count":2395,
			"type":"VEC2"
		},
		{
			"bufferView":15,
			"componentType":5126,
			"count":800,
			"max":[
				0.4885183274745941,
				1.6876094341278076,
				0.5046199560165405
			],
			"min":[
				-0.48006489872932434,
				-0.09516235440969467,
				-0.5046199560165405
			],
			"type":"VEC3"
		},
		{
			"bufferView":16,
			"componentType":5126,
			"count":800,
			"type":"VEC3"
		},
		{
			"bufferView":17,
			"componentType":5126,
			"count":800,
			"type":"VEC2"
		},
		{
			"bufferView":18,
			"componentType":5126,
			"count":492,
			"max":[
				0.4299706816673279,
				1.734357476234436,
				0.46478453278541565
			],
			"min":[
				-0.4948486387729645,
				0.8096572756767273,
				-0.46478453278541565
			],
			"type":"VEC3"
		},
		{
			"bufferView":19,
			"componentType":5126,
			"count":492,
			"type":"VEC3"
		},
		{
			"bufferView":20,
			"componentType":5126,
			"count":492,
			"type":"VEC2"
		},
		{
			"bufferView":21,
			"componentType":5126,
			"count":2020,
			"max":[
				0.6677327752113342,
				-0.020776808261871338,
				1.4529615640640259
			],
			"min":[
				-0.6860277652740479,
				-1.2960152626037598,
				-1.4529613256454468
			],
			"type":"VEC3"
		},
		{
			"bufferView":22,
			"componentType":5126,
			"count":2020,
			"type":"VEC3"
		},
		{
			"bufferView":23,
			"componentType":5126,
			"count":2020,
			"type":"VEC2"
		},
		{
			"bufferView":24,
			"componentType":5123,
			"count":8328,
			"type":"SCALAR"
		},
		{
			"bufferView":25,
			"componentType":5126,
			"count":496,
			"max":[
				0.5731198191642761,
				-1.2960152626037598,
				1.4367159605026245
			],
			"min":[
				-0.591414749622345,
				-1.3691960573196411,
				-1.4367153644561768
			],
			"type":"VEC3"
		},
		{
			"bufferView":26,
			"componentType":5126,
			"count":496,
			"type":"VEC3"
		},
		{
			"bufferView":27,
			"componentType":5126,
			"count":496,
			"type":"VEC2"
		},
		{
			"bufferView":28,
			"componentType":5123,
			"count":1704,
			"type":"SCALAR"
		},
		{
			"bufferView":29,
			"componentType":5126,
			"count":297,
			"max":[
				0.6854075789451599,
				0.022986819967627525,
				1.4850550889968872
			],
			"min":[
				-0.6854075789451599,
				-0.022986818104982376,
				-1.4850550889968872
			],
			"type":"VEC3"
		},
		{
			"bufferView":30,
			"componentType":5126,
			"count":297,
			"type":"VEC3"
		},
		{
			"bufferView":31,
			"componentType":5126,
			"count":297,
			"type":"VEC2"
		},
		{
			"bufferView":32,
			"componentType":5123,
			"count":1140,
			"type":"SCALAR"
		},
		{
			"bufferView":33,
			"componentType":5126,
			"count":58,
			"max":[
				9.14759349822998,
				4.5515456199646,
				8.232836723327637
			],
			"min":[
				-9.147607803344727,
				-0.02225380949676037,
				-8.5802001953125
			],
			"type":"VEC3"
		},
		{
			"bufferView":34,
			"componentType":5126,
			"count":58,
			"type":"VEC3"
		},
		{
			"bufferView":35,
			"componentType":5126,
			"count":58,
			"type":"VEC2"
		},
		{
			"bufferView":36,
			"componentType":5123,
			"count":138,
			"type":"SCALAR"
		},
		{
			"bufferView":37,
			"componentType":5126,
			"count":20,
			"max":[
				4.779184818267822,
				4.524275302886963,
				8.150301933288574
			],
			"min":[
				-7.546771049499512,
				-0.02225380949676037,
				-8.197064399719238
			],
			"type":"VEC3"
		},
		{
			"bufferView":38,
			"componentType":5126,
			"count":20,
			"type":"VEC3"
		},
		{
			"bufferView":39,
			"componentType":5126,
			"count":20,
			"type":"VEC2"
		},
		{
			"bufferView":40,
			"componentType":5123,
			"count":30,
			"type":"SCALAR"
		},
		{
			"bufferView":41,
			"componentType":5126,
			"count":244,
			"max":[
				4.893959999084473,
				4.656391620635986,
				8.23283576965332
			],
			"min":[
				-4.436590671539307,
				2.1865391731262207,
				8.095935821533203
			],
			"type":"VEC3"
		},
		{
			"bufferView":42,
			"componentType":5126,
			"count":244,
			"type":"VEC3"
		},
		{
			"bufferView":43,
			"componentType":5126,
			"count":244,
			"type":"VEC2"
		},
		{
			"bufferView":44,
			"componentType":5123,
			"count":528,
			"type":"SCALAR"
		},
		{
			"bufferView":45,
			"componentType":5126,
			"count":956,
			"max":[
				8.99315357208252,
				4.573800086975098,
				8.127608299255371
			],
			"min":[
				-9.18199634552002,
				1.9094502925872803,
				-8.197063446044922
			],
			"type":"VEC3"
		},
		{
			"bufferView":46,
			"componentType":5126,
			"count":956,
			"type":"VEC3"
		},
		{
			"bufferView":47,
			"componentType":5126,
			"count":956,
			"type":"VEC2"
		},
		{
			"bufferView":48,
			"componentType":5123,
			"count":1578,
			"type":"SCALAR"
		},
		{
			"bufferView":49,
			"componentType":5126,
			"count":68,
			"max":[
				9.14759349822998,
				6.860699653625488,
				8.232836723327637
			],
			"min":[
				-9.147607803344727,
				0,
				-8.232836723327637
			],
			"type":"VEC3"
		},
		{
			"bufferView":50,
			"componentType":5126,
			"count":68,
			"type":"VEC3"
		},
		{
			"bufferView":51,
			"componentType":5126,
			"count":68,
			"type":"VEC2"
		},
		{
			"bufferView":52,
			"componentType":5123,
			"count":192,
			"type":"SCALAR"
		},
		{
			"bufferView":53,
			"componentType":5126,
			"count":105,
			"max":[
				9.376288414001465,
				4.5515456199646,
				3.4257378578186035
			],
			"min":[
				-7.7754621505737305,
				-0.02225380949676037,
				-8.5802001953125
			],
			"type":"VEC3"
		},
		{
			"bufferView":54,
			"componentType":5126,
			"count":105,
			"type":"VEC3"
		},
		{
			"bufferView":55,
			"componentType":5126,
			"count":105,
			"type":"VEC2"
		},
		{
			"bufferView":56,
			"componentType":5123,
			"count":216,
			"type":"SCALAR"
		},
		{
			"bufferView":57,
			"componentType":5126,
			"count":26,
			"max":[
				8.99315357208252,
				4.3228559494018555,
				3.197049140930176
			],
			"min":[
				-7.546771049499512,
				-0.02225380949676037,
				-8.197064399719238
			],
			"type":"VEC3"
		},
		{
			"bufferView":58,
			"componentType":5126,
			"count":26,
			"type":"VEC3"
		},
		{
			"bufferView":59,
			"componentType":5126,
			"count":26,
			"type":"VEC2"
		},
		{
			"bufferView":60,
			"componentType":5123,
			"count":78,
			"type":"SCALAR"
		},
		{
			"bufferView":61,
			"componentType":5126,
			"count":4,
			"max":[
				-9.131756782531738,
				4.502254486083984,
				3.890517234802246
			],
			"min":[
				-9.131756782531738,
				2.3584461212158203,
				-3.9362564086914062
			],
			"type":"VEC3"
		},
		{
			"bufferView":62,
			"componentType":5126,
			"count":4,
			"type":"VEC3"
		},
		{
			"bufferView":63,
			"componentType":5126,
			"count":4,
			"type":"VEC2"
		},
		{
			"bufferView":64,
			"componentType":5123,
			"count":6,
			"type":"SCALAR"
		},
		{
			"bufferView":65,
			"componentType":5126,
			"count":2020,
			"max":[
				0.6353410482406616,
				-0.009085141122341156,
				0.29198160767555237
			],
			"min":[
				-0.6353411674499512,
				-0.5667127370834351,
				-0.2999815046787262
			],
			"type":"VEC3"
		},
		{
			"bufferView":66,
			"componentType":5126,
			"count":2020,
			"type":"VEC3"
		},
		{
			"bufferView":67,
			"componentType":5126,
			"count":2020,
			"type":"VEC2"
		},
		{
			"bufferView":68,
			"componentType":5123,
			"count":8328,
			"type":"SCALAR"
		},
		{
			"bufferView":69,
			"componentType":5126,
			"count":496,
			"max":[
				0.6282371282577515,
				-0.5667127370834351,
				0.2506098747253418
			],
			"min":[
				-0.6282373666763306,
				-0.5987127423286438,
				-0.2586097717285156
			],
			"type":"VEC3"
		},
		{
			"bufferView":70,
			"componentType":5126,
			"count":496,
			"type":"VEC3"
		},
		{
			"bufferView":71,
			"componentType":5126,
			"count":496,
			"type":"VEC2"
		},
		{
			"bufferView":72,
			"componentType":5123,
			"count":1704,
			"type":"SCALAR"
		},
		{
			"bufferView":73,
			"componentType":5126,
			"count":297,
			"max":[
				0.649374783039093,
				0.01005152054131031,
				0.29971030354499817
			],
			"min":[
				-0.649374783039093,
				-0.010051519609987736,
				-0.29971030354499817
			],
			"type":"VEC3"
		},
		{
			"bufferView":74,
			"componentType":5126,
			"count":297,
			"type":"VEC3"
		},
		{
			"bufferView":75,
			"componentType":5126,
			"count":297,
			"type":"VEC2"
		},
		{
			"bufferView":76,
			"componentType":5126,
			"count":4,
			"max":[
				-0.11255408078432083,
				0.937951922416687,
				1.2402669191360474
			],
			"min":[
				-0.11255434900522232,
				-0.937951922416687,
				-1.2402669191360474
			],
			"type":"VEC3"
		},
		{
			"bufferView":77,
			"componentType":5126,
			"count":4,
			"type":"VEC3"
		},
		{
			"bufferView":78,
			"componentType":5126,
			"count":4,
			"type":"VEC2"
		},
		{
			"bufferView":79,
			"componentType":5123,
			"count":6,
			"type":"SCALAR"
		},
		{
			"bufferView":80,
			"componentType":5126,
			"count":40,
			"max":[
				0.18037450313568115,
				0.983232319355011,
				1.267919659614563
			],
			"min":[
				-0.19480639696121216,
				-0.9832320809364319,
				-1.2757583856582642
			],
			"type":"VEC3"
		},
		{
			"bufferView":81,
			"componentType":5126,
			"count":40,
			"type":"VEC3"
		},
		{
			"bufferView":82,
			"componentType":5126,
			"count":40,
			"type":"VEC2"
		},
		{
			"bufferView":83,
			"componentType":5123,
			"count":72,
			"type":"SCALAR"
		},
		{
			"bufferView":84,
			"componentType":5126,
			"count":4,
			"max":[
				-0.14100299775600433,
				0.9278692007064819,
				1.2240945100784302
			],
			"min":[
				-0.1410030722618103,
				-0.9278692603111267,
				-1.2319332361221313
			],
			"type":"VEC3"
		},
		{
			"bufferView":85,
			"componentType":5126,
			"count":4,
			"type":"VEC3"
		},
		{
			"bufferView":86,
			"componentType":5126,
			"count":4,
			"type":"VEC2"
		},
		{
			"bufferView":87,
			"componentType":5126,
			"count":24,
			"max":[
				0.8833152055740356,
				1.143450140953064,
				1.6354994158973568e-07
			],
			"min":[
				-0.8833152055740356,
				-1.143450140953064,
				-0.010721961036324501
			],
			"type":"VEC3"
		},
		{
			"bufferView":88,
			"componentType":5126,
			"count":24,
			"type":"VEC3"
		},
		{
			"bufferView":89,
			"componentType":5126,
			"count":24,
			"type":"VEC2"
		},
		{
			"bufferView":90,
			"componentType":5123,
			"count":36,
			"type":"SCALAR"
		},
		{
			"bufferView":91,
			"componentType":5126,
			"count":4,
			"max":[
				1.438262188457884e-06,
				1.6646335124969482,
				2.793790340423584
			],
			"min":[
				-1.438262188457884e-06,
				-1.6646335124969482,
				-2.793790340423584
			],
			"type":"VEC3"
		},
		{
			"bufferView":92,
			"componentType":5126,
			"count":4,
			"type":"VEC3"
		},
		{
			"bufferView":93,
			"componentType":5126,
			"count":4,
			"type":"VEC2"
		},
		{
			"bufferView":94,
			"componentType":5126,
			"count":40,
			"max":[
				0.4759945869445801,
				1.7991636991500854,
				2.893610954284668
			],
			"min":[
				-0.18986034393310547,
				-1.7991631031036377,
				-2.897742509841919
			],
			"type":"VEC3"
		},
		{
			"bufferView":95,
			"componentType":5126,
			"count":40,
			"type":"VEC3"
		},
		{
			"bufferView":96,
			"componentType":5126,
			"count":40,
			"type":"VEC2"
		},
		{
			"bufferView":97,
			"componentType":5126,
			"count":4,
			"max":[
				-0.0955534279346466,
				1.6467396020889282,
				2.7599780559539795
			],
			"min":[
				-0.09555476903915405,
				-1.64673912525177,
				-2.7641093730926514
			],
			"type":"VEC3"
		},
		{
			"bufferView":98,
			"componentType":5126,
			"count":4,
			"type":"VEC3"
		},
		{
			"bufferView":99,
			"componentType":5126,
			"count":4,
			"type":"VEC2"
		},
		{
			"bufferView":100,
			"componentType":5126,
			"count":4,
			"max":[
				1.395009160041809,
				1.8295202255249023,
				0.09147632122039795
			],
			"min":[
				-1.395009160041809,
				-1.8295202255249023,
				0.09147568047046661
			],
			"type":"VEC3"
		},
		{
			"bufferView":101,
			"componentType":5126,
			"count":4,
			"type":"VEC3"
		},
		{
			"bufferView":102,
			"componentType":5126,
			"count":4,
			"type":"VEC2"
		},
		{
			"bufferView":103,
			"componentType":5126,
			"count":40,
			"max":[
				1.452571988105774,
				1.9151784181594849,
				0.16537593305110931
			],
			"min":[
				-1.449641466140747,
				-1.9151780605316162,
				-0.20510251820087433
			],
			"type":"VEC3"
		},
		{
			"bufferView":104,
			"componentType":5126,
			"count":40,
			"type":"VEC3"
		},
		{
			"bufferView":105,
			"componentType":5126,
			"count":40,
			"type":"VEC2"
		},
		{
			"bufferView":106,
			"componentType":5123,
			"count":72,
			"type":"SCALAR"
		},
		{
			"bufferView":107,
			"componentType":5126,
			"count":4,
			"max":[
				1.3716906309127808,
				1.8047364950180054,
				0.12289980053901672
			],
			"min":[
				-1.3687599897384644,
				-1.8047361373901367,
				0.12289933860301971
			],
			"type":"VEC3"
		},
		{
			"bufferView":108,
			"componentType":5126,
			"count":4,
			"type":"VEC3"
		},
		{
			"bufferView":109,
			"componentType":5126,
			"count":4,
			"type":"VEC2"
		},
		{
			"bufferView":110,
			"componentType":5126,
			"count":4,
			"max":[
				0.7212842702865601,
				1.006235957145691,
				0.04573814570903778
			],
			"min":[
				-0.7212842702865601,
				-1.006235957145691,
				0.04573784023523331
			],
			"type":"VEC3"
		},
		{
			"bufferView":111,
			"componentType":5126,
			"count":4,
			"type":"VEC3"
		},
		{
			"bufferView":112,
			"componentType":5126,
			"count":4,
			"type":"VEC2"
		},
		{
			"bufferView":113,
			"componentType":5126,
			"count":40,
			"max":[
				0.8690199255943298,
				1.1663188934326172,
				0.09147825837135315
			],
			"min":[
				-0.8690237998962402,
				-1.166318655014038,
				-0.1372118890285492
			],
			"type":"VEC3"
		},
		{
			"bufferView":114,
			"componentType":5126,
			"count":40,
			"type":"VEC3"
		},
		{
			"bufferView":115,
			"componentType":5126,
			"count":40,
			"type":"VEC2"
		},
		{
			"bufferView":116,
			"componentType":5126,
			"count":4,
			"max":[
				0.7027912139892578,
				1.00009024143219,
				0.054576460272073746
			],
			"min":[
				-0.7027950286865234,
				-1.0000898838043213,
				0.05457634851336479
			],
			"type":"VEC3"
		},
		{
			"bufferView":117,
			"componentType":5126,
			"count":4,
			"type":"VEC3"
		},
		{
			"bufferView":118,
			"componentType":5126,
			"count":4,
			"type":"VEC2"
		},
		{
			"bufferView":119,
			"componentType":5126,
			"count":2395,
			"max":[
				0.21510455012321472,
				0.7361774444580078,
				0.21361595392227173
			],
			"min":[
				-0.21510455012321472,
				-0.02144339308142662,
				-0.20464524626731873
			],
			"type":"VEC3"
		},
		{
			"bufferView":120,
			"componentType":5126,
			"count":2395,
			"type":"VEC3"
		},
		{
			"bufferView":121,
			"componentType":5126,
			"count":2395,
			"type":"VEC2"
		},
		{
			"bufferView":122,
			"componentType":5123,
			"count":9156,
			"type":"SCALAR"
		},
		{
			"bufferView":123,
			"componentType":5126,
			"count":800,
			"max":[
				0.22065676748752594,
				0.7379463911056519,
				0.21361595392227173
			],
			"min":[
				-0.22065676748752594,
				-0.04161194711923599,
				-0.2099194973707199
			],
			"type":"VEC3"
		},
		{
			"bufferView":124,
			"componentType":5126,
			"count":800,
			"type":"VEC3"
		},
		{
			"bufferView":125,
			"componentType":5126,
			"count":800,
			"type":"VEC2"
		},
		{
			"bufferView":126,
			"componentType":5123,
			"count":2556,
			"type":"SCALAR"
		},
		{
			"bufferView":127,
			"componentType":5126,
			"count":492,
			"max":[
				0.20323783159255981,
				0.7583880424499512,
				0.18801464140415192
			],
			"min":[
				-0.20323780179023743,
				0.3540414273738861,
				-0.21638405323028564
			],
			"type":"VEC3"
		},
		{
			"bufferView":128,
			"componentType":5126,
			"count":492,
			"type":"VEC3"
		},
		{
			"bufferView":129,
			"componentType":5126,
			"count":492,
			"type":"VEC2"
		},
		{
			"bufferView":130,
			"componentType":5123,
			"count":1632,
			"type":"SCALAR"
		},
		{
			"bufferView":131,
			"componentType":5126,
			"count":2395,
			"max":[
				0.21510455012321472,
				0.7361774444580078,
				0.21361595392227173
			],
			"min":[
				-0.21510455012321472,
				-0.02144339308142662,
				-0.20464524626731873
			],
			"type":"VEC3"
		},
		{
			"bufferView":132,
			"componentType":5126,
			"count":2395,
			"type":"VEC3"
		},
		{
			"bufferView":133,
			"componentType":5126,
			"count":2395,
			"type":"VEC2"
		},
		{
			"bufferView":134,
			"componentType":5126,
			"count":800,
			"max":[
				0.22065676748752594,
				0.7379463911056519,
				0.21361595392227173
			],
			"min":[
				-0.22065676748752594,
				-0.04161194711923599,
				-0.2099194973707199
			],
			"type":"VEC3"
		},
		{
			"bufferView":135,
			"componentType":5126,
			"count":800,
			"type":"VEC3"
		},
		{
			"bufferView":136,
			"componentType":5126,
			"count":800,
			"type":"VEC2"
		},
		{
			"bufferView":137,
			"componentType":5126,
			"count":492,
			"max":[
				0.20323783159255981,
				0.7583880424499512,
				0.18801464140415192
			],
			"min":[
				-0.20323780179023743,
				0.3540414273738861,
				-0.21638405323028564
			],
			"type":"VEC3"
		},
		{
			"bufferView":138,
			"componentType":5126,
			"count":492,
			"type":"VEC3"
		},
		{
			"bufferView":139,
			"componentType":5126,
			"count":492,
			"type":"VEC2"
		},
		{
			"bufferView":140,
			"componentType":5126,
			"count":2020,
			"max":[
				0.6353410482406616,
				-0.009085141122341156,
				0.29198160767555237
			],
			"min":[
				-0.6353411674499512,
				-0.5667127370834351,
				-0.2999815046787262
			],
			"type":"VEC3"
		},
		{
			"bufferView":141,
			"componentType":5126,
			"count":2020,
			"type":"VEC3"
		},
		{
			"bufferView":142,
			"componentType":5126,
			"count":2020,
			"type":"VEC2"
		},
		{
			"bufferView":143,
			"componentType":5123,
			"count":8328,
			"type":"SCALAR"
		},
		{
			"bufferView":144,
			"componentType":5126,
			"count":496,
			"max":[
				0.6282371282577515,
				-0.5667127370834351,
				0.2506098747253418
			],
			"min":[
				-0.6282373666763306,
				-0.5987127423286438,
				-0.2586097717285156
			],
			"type":"VEC3"
		},
		{
			"bufferView":145,
			"componentType":5126,
			"count":496,
			"type":"VEC3"
		},
		{
			"bufferView":146,
			"componentType":5126,
			"count":496,
			"type":"VEC2"
		},
		{
			"bufferView":147,
			"componentType":5126,
			"count":297,
			"max":[
				0.649374783039093,
				0.01005152054131031,
				0.29971030354499817
			],
			"min":[
				-0.649374783039093,
				-0.010051519609987736,
				-0.29971030354499817
			],
			"type":"VEC3"
		},
		{
			"bufferView":148,
			"componentType":5126,
			"count":297,
			"type":"VEC3"
		},
		{
			"bufferView":149,
			"componentType":5126,
			"count":297,
			"type":"VEC2"
		},
		{
			"bufferView":150,
			"componentType":5126,
			"count":2020,
			"max":[
				0.6353410482406616,
				-0.009085141122341156,
				0.29198160767555237
			],
			"min":[
				-0.6353411674499512,
				-0.5667127370834351,
				-0.2999815046787262
			],
			"type":"VEC3"
		},
		{
			"bufferView":151,
			"componentType":5126,
			"count":2020,
			"type":"VEC3"
		},
		{
			"bufferView":152,
			"componentType":5126,
			"count":2020,
			"type":"VEC2"
		},
		{
			"bufferView":153,
			"componentType":5126,
			"count":496,
			"max":[
				0.6282371282577515,
				-0.5667127370834351,
				0.2506098747253418
			],
			"min":[
				-0.6282373666763306,
				-0.5987127423286438,
				-0.2586097717285156
			],
			"type":"VEC3"
		},
		{
			"bufferView":154,
			"componentType":5126,
			"count":496,
			"type":"VEC3"
		},
		{
			"bufferView":155,
			"componentType":5126,
			"count":496,
			"type":"VEC2"
		},
		{
			"bufferView":156,
			"componentType":5126,
			"count":297,
			"max":[
				0.649374783039093,
				0.01005152054131031,
				0.29971030354499817
			],
			"min":[
				-0.649374783039093,
				-0.010051519609987736,
				-0.29971030354499817
			],
			"type":"VEC3"
		},
		{
			"bufferView":157,
			"componentType":5126,
			"count":297,
			"type":"VEC3"
		},
		{
			"bufferView":158,
			"componentType":5126,
			"count":297,
			"type":"VEC2"
		},
		{
			"bufferView":159,
			"componentType":5126,
			"count":2020,
			"max":[
				0.6353410482406616,
				-0.009085141122341156,
				0.29198160767555237
			],
			"min":[
				-0.6353411674499512,
				-0.5667127370834351,
				-0.2999815046787262
			],
			"type":"VEC3"
		},
		{
			"bufferView":160,
			"componentType":5126,
			"count":2020,
			"type":"VEC3"
		},
		{
			"bufferView":161,
			"componentType":5126,
			"count":2020,
			"type":"VEC2"
		},
		{
			"bufferView":162,
			"componentType":5126,
			"count":496,
			"max":[
				0.6282371282577515,
				-0.5667127370834351,
				0.2506098747253418
			],
			"min":[
				-0.6282373666763306,
				-0.5987127423286438,
				-0.2586097717285156
			],
			"type":"VEC3"
		},
		{
			"bufferView":163,
			"componentType":5126,
			"count":496,
			"type":"VEC3"
		},
		{
			"bufferView":164,
			"componentType":5126,
			"count":496,
			"type":"VEC2"
		},
		{
			"bufferView":165,
			"componentType":5126,
			"count":297,
			"max":[
				0.649374783039093,
				0.01005152054131031,
				0.29971030354499817
			],
			"min":[
				-0.649374783039093,
				-0.010051519609987736,
				-0.29971030354499817
			],
			"type":"VEC3"
		},
		{
			"bufferView":166,
			"componentType":5126,
			"count":297,
			"type":"VEC3"
		},
		{
			"bufferView":167,
			"componentType":5126,
			"count":297,
			"type":"VEC2"
		},
		{
			"bufferView":168,
			"componentType":5126,
			"count":2020,
			"max":[
				0.6353410482406616,
				-0.009085141122341156,
				0.29198160767555237
			],
			"min":[
				-0.6353411674499512,
				-0.5667127370834351,
				-0.2999815046787262
			],
			"type":"VEC3"
		},
		{
			"bufferView":169,
			"componentType":5126,
			"count":2020,
			"type":"VEC3"
		},
		{
			"bufferView":170,
			"componentType":5126,
			"count":2020,
			"type":"VEC2"
		},
		{
			"bufferView":171,
			"componentType":5126,
			"count":496,
			"max":[
				0.6282371282577515,
				-0.5667127370834351,
				0.2506098747253418
			],
			"min":[
				-0.6282373666763306,
				-0.5987127423286438,
				-0.2586097717285156
			],
			"type":"VEC3"
		},
		{
			"bufferView":172,
			"componentType":5126,
			"count":496,
			"type":"VEC3"
		},
		{
			"bufferView":173,
			"componentType":5126,
			"count":496,
			"type":"VEC2"
		},
		{
			"bufferView":174,
			"componentType":5126,
			"count":297,
			"max":[
				0.649374783039093,
				0.01005152054131031,
				0.29971030354499817
			],
			"min":[
				-0.649374783039093,
				-0.010051519609987736,
				-0.29971030354499817
			],
			"type":"VEC3"
		},
		{
			"bufferView":175,
			"componentType":5126,
			"count":297,
			"type":"VEC3"
		},
		{
			"bufferView":176,
			"componentType":5126,
			"count":297,
			"type":"VEC2"
		},
		{
			"bufferView":177,
			"componentType":5126,
			"count":2020,
			"max":[
				0.6353410482406616,
				-0.009085141122341156,
				0.29198160767555237
			],
			"min":[
				-0.6353411674499512,
				-0.5667127370834351,
				-0.2999815046787262
			],
			"type":"VEC3"
		},
		{
			"bufferView":178,
			"componentType":5126,
			"count":2020,
			"type":"VEC3"
		},
		{
			"bufferView":179,
			"componentType":5126,
			"count":2020,
			"type":"VEC2"
		},
		{
			"bufferView":180,
			"componentType":5126,
			"count":496,
			"max":[
				0.6282371282577515,
				-0.5667127370834351,
				0.2506098747253418
			],
			"min":[
				-0.6282373666763306,
				-0.5987127423286438,
				-0.2586097717285156
			],
			"type":"VEC3"
		},
		{
			"bufferView":181,
			"componentType":5126,
			"count":496,
			"type":"VEC3"
		},
		{
			"bufferView":182,
			"componentType":5126,
			"count":496,
			"type":"VEC2"
		},
		{
			"bufferView":183,
			"componentType":5126,
			"count":297,
			"max":[
				0.649374783039093,
				0.01005152054131031,
				0.29971030354499817
			],
			"min":[
				-0.649374783039093,
				-0.010051519609987736,
				-0.29971030354499817
			],
			"type":"VEC3"
		},
		{
			"bufferView":184,
			"componentType":5126,
			"count":297,
			"type":"VEC3"
		},
		{
			"bufferView":185,
			"componentType":5126,
			"count":297,
			"type":"VEC2"
		},
		{
			"bufferView":186,
			"componentType":5126,
			"count":2020,
			"max":[
				0.6353410482406616,
				-0.009085141122341156,
				0.29198160767555237
			],
			"min":[
				-0.6353411674499512,
				-0.5667127370834351,
				-0.2999815046787262
			],
			"type":"VEC3"
		},
		{
			"bufferView":187,
			"componentType":5126,
			"count":2020,
			"type":"VEC3"
		},
		{
			"bufferView":188,
			"componentType":5126,
			"count":2020,
			"type":"VEC2"
		},
		{
			"bufferView":189,
			"componentType":5126,
			"count":496,
			"max":[
				0.6282371282577515,
				-0.5667127370834351,
				0.2506098747253418
			],
			"min":[
				-0.6282373666763306,
				-0.5987127423286438,
				-0.2586097717285156
			],
			"type":"VEC3"
		},
		{
			"bufferView":190,
			"componentType":5126,
			"count":496,
			"type":"VEC3"
		},
		{
			"bufferView":191,
			"componentType":5126,
			"count":496,
			"type":"VEC2"
		},
		{
			"bufferView":192,
			"componentType":5126,
			"count":297,
			"max":[
				0.649374783039093,
				0.01005152054131031,
				0.29971030354499817
			],
			"min":[
				-0.649374783039093,
				-0.010051519609987736,
				-0.29971030354499817
			],
			"type":"VEC3"
		},
		{
			"bufferView":193,
			"componentType":5126,
			"count":297,
			"type":"VEC3"
		},
		{
			"bufferView":194,
			"componentType":5126,
			"count":297,
			"type":"VEC2"
		},
		{
			"bufferView":195,
			"componentType":5126,
			"count":2020,
			"max":[
				0.6353410482406616,
				-0.009085141122341156,
				0.29198160767555237
			],
			"min":[
				-0.6353411674499512,
				-0.5667127370834351,
				-0.2999815046787262
			],
			"type":"VEC3"
		},
		{
			"bufferView":196,
			"componentType":5126,
			"count":2020,
			"type":"VEC3"
		},
		{
			"bufferView":197,
			"componentType":5126,
			"count":2020,
			"type":"VEC2"
		},
		{
			"bufferView":198,
			"componentType":5126,
			"count":496,
			"max":[
				0.6282371282577515,
				-0.5667127370834351,
				0.2506098747253418
			],
			"min":[
				-0.6282373666763306,
				-0.5987127423286438,
				-0.2586097717285156
			],
			"type":"VEC3"
		},
		{
			"bufferView":199,
			"componentType":5126,
			"count":496,
			"type":"VEC3"
		},
		{
			"bufferView":200,
			"componentType":5126,
			"count":496,
			"type":"VEC2"
		},
		{
			"bufferView":201,
			"componentType":5126,
			"count":297,
			"max":[
				0.649374783039093,
				0.01005152054131031,
				0.29971030354499817
			],
			"min":[
				-0.649374783039093,
				-0.010051519609987736,
				-0.29971030354499817
			],
			"type":"VEC3"
		},
		{
			"bufferView":202,
			"componentType":5126,
			"count":297,
			"type":"VEC3"
		},
		{
			"bufferView":203,
			"componentType":5126,
			"count":297,
			"type":"VEC2"
		},
		{
			"bufferView":204,
			"componentType":5126,
			"count":2020,
			"max":[
				0.6353410482406616,
				-0.009085141122341156,
				0.29198160767555237
			],
			"min":[
				-0.6353411674499512,
				-0.5667127370834351,
				-0.2999815046787262
			],
			"type":"VEC3"
		},
		{
			"bufferView":205,
			"componentType":5126,
			"count":2020,
			"type":"VEC3"
		},
		{
			"bufferView":206,
			"componentType":5126,
			"count":2020,
			"type":"VEC2"
		},
		{
			"bufferView":207,
			"componentType":5126,
			"count":496,
			"max":[
				0.6282371282577515,
				-0.5667127370834351,
				0.2506098747253418
			],
			"min":[
				-0.6282373666763306,
				-0.5987127423286438,
				-0.2586097717285156
			],
			"type":"VEC3"
		},
		{
			"bufferView":208,
			"componentType":5126,
			"count":496,
			"type":"VEC3"
		},
		{
			"bufferView":209,
			"componentType":5126,
			"count":496,
			"type":"VEC2"
		},
		{
			"bufferView":210,
			"componentType":5126,
			"count":297,
			"max":[
				0.649374783039093,
				0.01005152054131031,
				0.29971030354499817
			],
			"min":[
				-0.649374783039093,
				-0.010051519609987736,
				-0.29971030354499817
			],
			"type":"VEC3"
		},
		{
			"bufferView":211,
			"componentType":5126,
			"count":297,
			"type":"VEC3"
		},
		{
			"bufferView":212,
			"componentType":5126,
			"count":297,
			"type":"VEC2"
		},
		{
			"bufferView":213,
			"componentType":5126,
			"count":2020,
			"max":[
				0.6353410482406616,
				-0.009085141122341156,
				0.29198160767555237
			],
			"min":[
				-0.6353411674499512,
				-0.5667127370834351,
				-0.2999815046787262
			],
			"type":"VEC3"
		},
		{
			"bufferView":214,
			"componentType":5126,
			"count":2020,
			"type":"VEC3"
		},
		{
			"bufferView":215,
			"componentType":5126,
			"count":2020,
			"type":"VEC2"
		},
		{
			"bufferView":216,
			"componentType":5126,
			"count":496,
			"max":[
				0.6282371282577515,
				-0.5667127370834351,
				0.2506098747253418
			],
			"min":[
				-0.6282373666763306,
				-0.5987127423286438,
				-0.2586097717285156
			],
			"type":"VEC3"
		},
		{
			"bufferView":217,
			"componentType":5126,
			"count":496,
			"type":"VEC3"
		},
		{
			"bufferView":218,
			"componentType":5126,
			"count":496,
			"type":"VEC2"
		},
		{
			"bufferView":219,
			"componentType":5126,
			"count":297,
			"max":[
				0.649374783039093,
				0.01005152054131031,
				0.29971030354499817
			],
			"min":[
				-0.649374783039093,
				-0.010051519609987736,
				-0.29971030354499817
			],
			"type":"VEC3"
		},
		{
			"bufferView":220,
			"componentType":5126,
			"count":297,
			"type":"VEC3"
		},
		{
			"bufferView":221,
			"componentType":5126,
			"count":297,
			"type":"VEC2"
		},
		{
			"bufferView":222,
			"componentType":5126,
			"count":2020,
			"max":[
				0.6353410482406616,
				-0.009085141122341156,
				0.29198160767555237
			],
			"min":[
				-0.6353411674499512,
				-0.5667127370834351,
				-0.2999815046787262
			],
			"type":"VEC3"
		},
		{
			"bufferView":223,
			"componentType":5126,
			"count":2020,
			"type":"VEC3"
		},
		{
			"bufferView":224,
			"componentType":5126,
			"count":2020,
			"type":"VEC2"
		},
		{
			"bufferView":225,
			"componentType":5126,
			"count":496,
			"max":[
				0.6282371282577515,
				-0.5667127370834351,
				0.2506098747253418
			],
			"min":[
				-0.6282373666763306,
				-0.5987127423286438,
				-0.2586097717285156
			],
			"type":"VEC3"
		},
		{
			"bufferView":226,
			"componentType":5126,
			"count":496,
			"type":"VEC3"
		},
		{
			"bufferView":227,
			"componentType":5126,
			"count":496,
			"type":"VEC2"
		},
		{
			"bufferView":228,
			"componentType":5126,
			"count":297,
			"max":[
				0.649374783039093,
				0.01005152054131031,
				0.29971030354499817
			],
			"min":[
				-0.649374783039093,
				-0.010051519609987736,
				-0.29971030354499817
			],
			"type":"VEC3"
		},
		{
			"bufferView":229,
			"componentType":5126,
			"count":297,
			"type":"VEC3"
		},
		{
			"bufferView":230,
			"componentType":5126,
			"count":297,
			"type":"VEC2"
		}
	],
	"bufferViews":[
		{
			"buffer":0,
			"byteLength":28740,
			"byteOffset":0,
			"target":34962
		},
		{
			"buffer":0,
			"byteLength":28740,
			"byteOffset":28740,
			"target":34962
		},
		{
			"buffer":0,
			"byteLength":19160,
			"byteOffset":57480,
			"target":34962
		},
		{
			"buffer":0,
			"byteLength":18312,
			"byteOffset":76640,
			"target":34963
		},
		{
			"buffer":0,
			"byteLength":9600,
			"byteOffset":94952,
			"target":34962
		},
		{
			"buffer":0,
			"byteLength":9600,
			"byteOffset":104552,
			"target":34962
		},
		{
			"buffer":0,
			"byteLength":6400,
			"byteOffset":114152,
			"target":34962
		},
		{
			"buffer":0,
			"byteLength":5112,
			"byteOffset":120552,
			"target":34963
		},
		{
			"buffer":0,
			"byteLength":5904,
			"byteOffset":125664,
			"target":34962
		},
		{
			"buffer":0,
			"byteLength":5904,
			"byteOffset":131568,
			"target":34962
		},
		{
			"buffer":0,
			"byteLength":3936,
			"byteOffset":137472,
			"target":34962
		},
		{
			"buffer":0,
			"byteLength":3264,
			"byteOffset":141408,
			"target":34963
		},
		{
			"buffer":0,
			"byteLength":28740,
			"byteOffset":144672,
			"target":34962
		},
		{
			"buffer":0,
			"byteLength":28740,
			"byteOffset":173412,
			"target":34962
		},
		{
			"buffer":0,
			"byteLength":19160,
			"byteOffset":202152,
			"target":34962
		},
		{
			"buffer":0,
			"byteLength":9600,
			"byteOffset":221312,
			"target":34962
		},
		{
			"buffer":0,
			"byteLength":9600,
			"byteOffset":230912,
			"target":34962
		},
		{
			"buffer":0,
			"byteLength":6400,
			"byteOffset":240512,
			"target":34962
		},
		{
			"buffer":0,
			"byteLength":5904,
			"byteOffset":246912,
			"target":34962
		},
		{
			"buffer":0,
			"byteLength":5904,
			"byteOffset":252816,
			"target":34962
		},
		{
			"buffer":0,
			"byteLength":3936,
			"byteOffset":258720,
			"target":34962
		},
		{
			"buffer":0,
			"byteLength":24240,
			"byteOffset":262656,
			"target":34962
		},
		{
			"buffer":0,
			"byteLength":24240,
			"byteOffset":286896,
			"target":34962
		},
		{
			"buffer":0,
			"byteLength":16160,
			"byteOffset":311136,
			"target":34962
		},
		{
			"buffer":0,
			"byteLength":16656,
			"byteOffset":327296,
			"target":34963
		},
		{
			"buffer":0,
			"byteLength":5952,
			"byteOffset":343952,
			"target":34962
		},
		{
			"buffer":0,
			"byteLength":5952,
			"byteOffset":349904,
			"target":34962
		},
		{
			"buffer":0,
			"byteLength":3968,
			"byteOffset":355856,
			"target":34962
		},
		{
			"buffer":0,
			"byteLength":3408,
			"byteOffset":359824,
			"target":34963
		},
		{
			"buffer":0,
			"byteLength":3564,
			"byteOffset":363232,
			"target":34962
		},
		{
			"buffer":0,
			"byteLength":3564,
			"byteOffset":366796,
			"target":34962
		},
		{
			"buffer":0,
			"byteLength":2376,
			"byteOffset":370360,
			"target":34962
		},
		{
			"buffer":0,
			"byteLength":2280,
			"byteOffset":372736,
			"target":34963
		},
		{
			"buffer":0,
			"byteLength":696,
			"byteOffset":375016,
			"target":34962
		},
		{
			"buffer":0,
			"byteLength":696,
			"byteOffset":375712,
			"target":34962
		},
		{
			"buffer":0,
			"byteLength":464,
			"byteOffset":376408,
			"target":34962
		},
		{
			"buffer":0,
			"byteLength":276,
			"byteOffset":376872,
			"target":34963
		},
		{
			"buffer":0,
			"byteLength":240,
			"byteOffset":377148,
			"target":34962
		},
		{
			"buffer":0,
			"byteLength":240,
			"byteOffset":377388,
			"target":34962
		},
		{
			"buffer":0,
			"byteLength":160,
			"byteOffset":377628,
			"target":34962
		},
		{
			"buffer":0,
			"byteLength":60,
			"byteOffset":377788,
			"target":34963
		},
		{
			"buffer":0,
			"byteLength":2928,
			"byteOffset":377848,
			"target":34962
		},
		{
			"buffer":0,
			"byteLength":2928,
			"byteOffset":380776,
			"target":34962
		},
		{
			"buffer":0,
			"byteLength":1952,
			"byteOffset":383704,
			"target":34962
		},
		{
			"buffer":0,
			"byteLength":1056,
			"byteOffset":385656,
			"target":34963
		},
		{
			"buffer":0,
			"byteLength":11472,
			"byteOffset":386712,
			"target":34962
		},
		{
			"buffer":0,
			"byteLength":11472,
			"byteOffset":398184,
			"target":34962
		},
		{
			"buffer":0,
			"byteLength":7648,
			"byteOffset":409656,
			"target":34962
		},
		{
			"buffer":0,
			"byteLength":3156,
			"byteOffset":417304,
			"target":34963
		},
		{
			"buffer":0,
			"byteLength":816,
			"byteOffset":420460,
			"target":34962
		},
		{
			"buffer":0,
			"byteLength":816,
			"byteOffset":421276,
			"target":34962
		},
		{
			"buffer":0,
			"byteLength":544,
			"byteOffset":422092,
			"target":34962
		},
		{
			"buffer":0,
			"byteLength":384,
			"byteOffset":422636,
			"target":34963
		},
		{
			"buffer":0,
			"byteLength":1260,
			"byteOffset":423020,
			"target":34962
		},
		{
			"buffer":0,
			"byteLength":1260,
			"byteOffset":424280,
			"target":34962
		},
		{
			"buffer":0,
			"byteLength":840,
			"byteOffset":425540,
			"target":34962
		},
		{
			"buffer":0,
			"byteLength":432,
			"byteOffset":426380,
			"target":34963
		},
		{
			"buffer":0,
			"byteLength":312,
			"byteOffset":426812,
			"target":34962
		},
		{
			"buffer":0,
			"byteLength":312,
			"byteOffset":427124,
			"target":34962
		},
		{
			"buffer":0,
			"byteLength":208,
			"byteOffset":427436,
			"target":34962
		},
		{
			"buffer":0,
			"byteLength":156,
			"byteOffset":427644,
			"target":34963
		},
		{
			"buffer":0,
			"byteLength":48,
			"byteOffset":427800,
			"target":34962
		},
		{
			"buffer":0,
			"byteLength":48,
			"byteOffset":427848,
			"target":34962
		},
		{
			"buffer":0,
			"byteLength":32,
			"byteOffset":427896,
			"target":34962
		},
		{
			"buffer":0,
			"byteLength":12,
			"byteOffset":427928,
			"target":34963
		},
		{
			"buffer":0,
			"byteLength":24240,
			"byteOffset":427940,
			"target":34962
		},
		{
			"buffer":0,
			"byteLength":24240,
			"byteOffset":452180,
			"target":34962
		},
		{
			"buffer":0,
			"byteLength":16160,
			"byteOffset":476420,
			"target":34962
		},
		{
			"buffer":0,
			"byteLength":16656,
			"byteOffset":492580,
			"target":34963
		},
		{
			"buffer":0,
			"byteLength":5952,
			"byteOffset":509236,
			"target":34962
		},
		{
			"buffer":0,
			"byteLength":5952,
			"byteOffset":515188,
			"target":34962
		},
		{
			"buffer":0,
			"byteLength":3968,
			"byteOffset":521140,
			"target":34962
		},
		{
			"buffer":0,
			"byteLength":3408,
			"byteOffset":525108,
			"target":34963
		},
		{
			"buffer":0,
			"byteLength":3564,
			"byteOffset":528516,
			"target":34962
		},
		{
			"buffer":0,
			"byteLength":3564,
			"byteOffset":532080,
			"target":34962
		},
		{
			"buffer":0,
			"byteLength":2376,
			"byteOffset":535644,
			"target":34962
		},
		{
			"buffer":0,
			"byteLength":48,
			"byteOffset":538020,
			"target":34962
		},
		{
			"buffer":0,
			"byteLength":48,
			"byteOffset":538068,
			"target":34962
		},
		{
			"buffer":0,
			"byteLength":32,
			"byteOffset":538116,
			"target":34962
		},
		{
			"buffer":0,
			"byteLength":12,
			"byteOffset":538148,
			"target":34963
		},
		{
			"buffer":0,
			"byteLength":480,
			"byteOffset":538160,
			"target":34962
		},
		{
			"buffer":0,
			"byteLength":480,
			"byteOffset":538640,
			"target":34962
		},
		{
			"buffer":0,
			"byteLength":320,
			"byteOffset":539120,
			"target":34962
		},
		{
			"buffer":0,
			"byteLength":144,
			"byteOffset":539440,
			"target":34963
		},
		{
			"buffer":0,
			"byteLength":48,
			"byteOffset":539584,
			"target":34962
		},
		{
			"buffer":0,
			"byteLength":48,
			"byteOffset":539632,
			"target":34962
		},
		{
			"buffer":0,
			"byteLength":32,
			"byteOffset":539680,
			"target":34962
		},
		{
			"buffer":0,
			"byteLength":288,
			"byteOffset":539712,
			"target":34962
		},
		{
			"buffer":0,
			"byteLength":288,
			"byteOffset":540000,
			"target":34962
		},
		{
			"buffer":0,
			"byteLength":192,
			"byteOffset":540288,
			"target":34962
		},
		{
			"buffer":0,
			"byteLength":72,
			"byteOffset":540480,
			"target":34963
		},
		{
			"buffer":0,
			"byteLength":48,
			"byteOffset":540552,
			"target":34962
		},
		{
			"buffer":0,
			"byteLength":48,
			"byteOffset":540600,
			"target":34962
		},
		{
			"buffer":0,
			"byteLength":32,
			"byteOffset":540648,
			"target":34962
		},
		{
			"buffer":0,
			"byteLength":480,
			"byteOffset":540680,
			"target":34962
		},
		{
			"buffer":0,
			"byteLength":480,
			"byteOffset":541160,
			"target":34962
		},
		{
			"buffer":0,
			"byteLength":320,
			"byteOffset":541640,
			"target":34962
		},
		{
			"buffer":0,
			"byteLength":48,
			"byteOffset":541960,
			"target":34962
		},
		{
			"buffer":0,
			"byteLength":48,
			"byteOffset":542008,
			"target":34962
		},
		{
			"buffer":0,
			"byteLength":32,
			"byteOffset":542056,
			"target":34962
		},
		{
			"buffer":0,
			"byteLength":48,
			"byteOffset":542088,
			"target":34962
		},
		{
			"buffer":0,
			"byteLength":48,
			"byteOffset":542136,
			"target":34962
		},
		{
			"buffer":0,
			"byteLength":32,
			"byteOffset":542184,
			"target":34962
		},
		{
			"buffer":0,
			"byteLength":480,
			"byteOffset":542216,
			"target":34962
		},
		{
			"buffer":0,
			"byteLength":480,
			"byteOffset":542696,
			"target":34962
		},
		{
			"buffer":0,
			"byteLength":320,
			"byteOffset":543176,
			"target":34962
		},
		{
			"buffer":0,
			"byteLength":144,
			"byteOffset":543496,
			"target":34963
		},
		{
			"buffer":0,
			"byteLength":48,
			"byteOffset":543640,
			"target":34962
		},
		{
			"buffer":0,
			"byteLength":48,
			"byteOffset":543688,
			"target":34962
		},
		{
			"buffer":0,
			"byteLength":32,
			"byteOffset":543736,
			"target":34962
		},
		{
			"buffer":0,
			"byteLength":48,
			"byteOffset":543768,
			"target":34962
		},
		{
			"buffer":0,
			"byteLength":48,
			"byteOffset":543816,
			"target":34962
		},
		{
			"buffer":0,
			"byteLength":32,
			"byteOffset":543864,
			"target":34962
		},
		{
			"buffer":0,
			"byteLength":480,
			"byteOffset":543896,
			"target":34962
		},
		{
			"buffer":0,
			"byteLength":480,
			"byteOffset":544376,
			"target":34962
		},
		{
			"buffer":0,
			"byteLength":320,
			"byteOffset":544856,
			"target":34962
		},
		{
			"buffer":0,
			"byteLength":48,
			"byteOffset":545176,
			"target":34962
		},
		{
			"buffer":0,
			"byteLength":48,
			"byteOffset":545224,
			"target":34962
		},
		{
			"buffer":0,
			"byteLength":32,
			"byteOffset":545272,
			"target":34962
		},
		{
			"buffer":0,
			"byteLength":28740,
			"byteOffset":545304,
			"target":34962
		},
		{
			"buffer":0,
			"byteLength":28740,
			"byteOffset":574044,
			"target":34962
		},
		{
			"buffer":0,
			"byteLength":19160,
			"byteOffset":602784,
			"target":34962
		},
		{
			"buffer":0,
			"byteLength":18312,
			"byteOffset":621944,
			"target":34963
		},
		{
			"buffer":0,
			"byteLength":9600,
			"byteOffset":640256,
			"target":34962
		},
		{
			"buffer":0,
			"byteLength":9600,
			"byteOffset":649856,
			"target":34962
		},
		{
			"buffer":0,
			"byteLength":6400,
			"byteOffset":659456,
			"target":34962
		},
		{
			"buffer":0,
			"byteLength":5112,
			"byteOffset":665856,
			"target":34963
		},
		{
			"buffer":0,
			"byteLength":5904,
			"byteOffset":670968,
			"target":34962
		},
		{
			"buffer":0,
			"byteLength":5904,
			"byteOffset":676872,
			"target":34962
		},
		{
			"buffer":0,
			"byteLength":3936,
			"byteOffset":682776,
			"target":34962
		},
		{
			"buffer":0,
			"byteLength":3264,
			"byteOffset":686712,
			"target":34963
		},
		{
			"buffer":0,
			"byteLength":28740,
			"byteOffset":689976,
			"target":34962
		},
		{
			"buffer":0,
			"byteLength":28740,
			"byteOffset":718716,
			"target":34962
		},
		{
			"buffer":0,
			"byteLength":19160,
			"byteOffset":747456,
			"target":34962
		},
		{
			"buffer":0,
			"byteLength":9600,
			"byteOffset":766616,
			"target":34962
		},
		{
			"buffer":0,
			"byteLength":9600,
			"byteOffset":776216,
			"target":34962
		},
		{
			"buffer":0,
			"byteLength":6400,
			"byteOffset":785816,
			"target":34962
		},
		{
			"buffer":0,
			"byteLength":5904,
			"byteOffset":792216,
			"target":34962
		},
		{
			"buffer":0,
			"byteLength":5904,
			"byteOffset":798120,
			"target":34962
		},
		{
			"buffer":0,
			"byteLength":3936,
			"byteOffset":804024,
			"target":34962
		},
		{
			"buffer":0,
			"byteLength":24240,
			"byteOffset":807960,
			"target":34962
		},
		{
			"buffer":0,
			"byteLength":24240,
			"byteOffset":832200,
			"target":34962
		},
		{
			"buffer":0,
			"byteLength":16160,
			"byteOffset":856440,
			"target":34962
		},
		{
			"buffer":0,
			"byteLength":16656,
			"byteOffset":872600,
			"target":34963
		},
		{
			"buffer":0,
			"byteLength":5952,
			"byteOffset":889256,
			"target":34962
		},
		{
			"buffer":0,
			"byteLength":5952,
			"byteOffset":895208,
			"target":34962
		},
		{
			"buffer":0,
			"byteLength":3968,
			"byteOffset":901160,
			"target":34962
		},
		{
			"buffer":0,
			"byteLength":3564,
			"byteOffset":905128,
			"target":34962
		},
		{
			"buffer":0,
			"byteLength":3564,
			"byteOffset":908692,
			"target":34962
		},
		{
			"buffer":0,
			"byteLength":2376,
			"byteOffset":912256,
			"target":34962
		},
		{
			"buffer":0,
			"byteLength":24240,
			"byteOffset":914632,
			"target":34962
		},
		{
			"buffer":0,
			"byteLength":24240,
			"byteOffset":938872,
			"target":34962
		},
		{
			"buffer":0,
			"byteLength":16160,
			"byteOffset":963112,
			"target":34962
		},
		{
			"buffer":0,
			"byteLength":5952,
			"byteOffset":979272,
			"target":34962
		},
		{
			"buffer":0,
			"byteLength":5952,
			"byteOffset":985224,
			"target":34962
		},
		{
			"buffer":0,
			"byteLength":3968,
			"byteOffset":991176,
			"target":34962
		},
		{
			"buffer":0,
			"byteLength":3564,
			"byteOffset":995144,
			"target":34962
		},
		{
			"buffer":0,
			"byteLength":3564,
			"byteOffset":998708,
			"target":34962
		},
		{
			"buffer":0,
			"byteLength":2376,
			"byteOffset":1002272,
			"target":34962
		},
		{
			"buffer":0,
			"byteLength":24240,
			"byteOffset":1004648,
			"target":34962
		},
		{
			"buffer":0,
			"byteLength":24240,
			"byteOffset":1028888,
			"target":34962
		},
		{
			"buffer":0,
			"byteLength":16160,
			"byteOffset":1053128,
			"target":34962
		},
		{
			"buffer":0,
			"byteLength":5952,
			"byteOffset":1069288,
			"target":34962
		},
		{
			"buffer":0,
			"byteLength":5952,
			"byteOffset":1075240,
			"target":34962
		},
		{
			"buffer":0,
			"byteLength":3968,
			"byteOffset":1081192,
			"target":34962
		},
		{
			"buffer":0,
			"byteLength":3564,
			"byteOffset":1085160,
			"target":34962
		},
		{
			"buffer":0,
			"byteLength":3564,
			"byteOffset":1088724,
			"target":34962
		},
		{
			"buffer":0,
			"byteLength":2376,
			"byteOffset":1092288,
			"target":34962
		},
		{
			"buffer":0,
			"byteLength":24240,
			"byteOffset":1094664,
			"target":34962
		},
		{
			"buffer":0,
			"byteLength":24240,
			"byteOffset":1118904,
			"target":34962
		},
		{
			"buffer":0,
			"byteLength":16160,
			"byteOffset":1143144,
			"target":34962
		},
		{
			"buffer":0,
			"byteLength":5952,
			"byteOffset":1159304,
			"target":34962
		},
		{
			"buffer":0,
			"byteLength":5952,
			"byteOffset":1165256,
			"target":34962
		},
		{
			"buffer":0,
			"byteLength":3968,
			"byteOffset":1171208,
			"target":34962
		},
		{
			"buffer":0,
			"byteLength":3564,
			"byteOffset":1175176,
			"target":34962
		},
		{
			"buffer":0,
			"byteLength":3564,
			"byteOffset":1178740,
			"target":34962
		},
		{
			"buffer":0,
			"byteLength":2376,
			"byteOffset":1182304,
			"target":34962
		},
		{
			"buffer":0,
			"byteLength":24240,
			"byteOffset":1184680,
			"target":34962
		},
		{
			"buffer":0,
			"byteLength":24240,
			"byteOffset":1208920,
			"target":34962
		},
		{
			"buffer":0,
			"byteLength":16160,
			"byteOffset":1233160,
			"target":34962
		},
		{
			"buffer":0,
			"byteLength":5952,
			"byteOffset":1249320,
			"target":34962
		},
		{
			"buffer":0,
			"byteLength":5952,
			"byteOffset":1255272,
			"target":34962
		},
		{
			"buffer":0,
			"byteLength":3968,
			"byteOffset":1261224,
			"target":34962
		},
		{
			"buffer":0,
			"byteLength":3564,
			"byteOffset":1265192,
			"target":34962
		},
		{
			"buffer":0,
			"byteLength":3564,
			"byteOffset":1268756,
			"target":34962
		},
		{
			"buffer":0,
			"byteLength":2376,
			"byteOffset":1272320,
			"target":34962
		},
		{
			"buffer":0,
			"byteLength":24240,
			"byteOffset":1274696,
			"target":34962
		},
		{
			"buffer":0,
			"byteLength":24240,
			"byteOffset":1298936,
			"target":34962
		},
		{
			"buffer":0,
			"byteLength":16160,
			"byteOffset":1323176,
			"target":34962
		},
		{
			"buffer":0,
			"byteLength":5952,
			"byteOffset":1339336,
			"target":34962
		},
		{
			"buffer":0,
			"byteLength":5952,
			"byteOffset":1345288,
			"target":34962
		},
		{
			"buffer":0,
			"byteLength":3968,
			"byteOffset":1351240,
			"target":34962
		},
		{
			"buffer":0,
			"byteLength":3564,
			"byteOffset":1355208,
			"target":34962
		},
		{
			"buffer":0,
			"byteLength":3564,
			"byteOffset":1358772,
			"target":34962
		},
		{
			"buffer":0,
			"byteLength":2376,
			"byteOffset":1362336,
			"target":34962
		},
		{
			"buffer":0,
			"byteLength":24240,
			"byteOffset":1364712,
			"target":34962
		},
		{
			"buffer":0,
			"byteLength":24240,
			"byteOffset":1388952,
			"target":34962
		},
		{
			"buffer":0,
			"byteLength":16160,
			"byteOffset":1413192,
			"target":34962
		},
		{
			"buffer":0,
			"byteLength":5952,
			"byteOffset":1429352,
			"target":34962
		},
		{
			"buffer":0,
			"byteLength":5952,
			"byteOffset":1435304,
			"target":34962
		},
		{
			"buffer":0,
			"byteLength":3968,
			"byteOffset":1441256,
			"target":34962
		},
		{
			"buffer":0,
			"byteLength":3564,
			"byteOffset":1445224,
			"target":34962
		},
		{
			"buffer":0,
			"byteLength":3564,
			"byteOffset":1448788,
			"target":34962
		},
		{
			"buffer":0,
			"byteLength":2376,
			"byteOffset":1452352,
			"target":34962
		},
		{
			"buffer":0,
			"byteLength":24240,
			"byteOffset":1454728,
			"target":34962
		},
		{
			"buffer":0,
			"byteLength":24240,
			"byteOffset":1478968,
			"target":34962
		},
		{
			"buffer":0,
			"byteLength":16160,
			"byteOffset":1503208,
			"target":34962
		},
		{
			"buffer":0,
			"byteLength":5952,
			"byteOffset":1519368,
			"target":34962
		},
		{
			"buffer":0,
			"byteLength":5952,
			"byteOffset":1525320,
			"target":34962
		},
		{
			"buffer":0,
			"byteLength":3968,
			"byteOffset":1531272,
			"target":34962
		},
		{
			"buffer":0,
			"byteLength":3564,
			"byteOffset":1535240,
			"target":34962
		},
		{
			"buffer":0,
			"byteLength":3564,
			"byteOffset":1538804,
			"target":34962
		},
		{
			"buffer":0,
			"byteLength":2376,
			"byteOffset":1542368,
			"target":34962
		},
		{
			"buffer":0,
			"byteLength":24240,
			"byteOffset":1544744,
			"target":34962
		},
		{
			"buffer":0,
			"byteLength":24240,
			"byteOffset":1568984,
			"target":34962
		},
		{
			"buffer":0,
			"byteLength":16160,
			"byteOffset":1593224,
			"target":34962
		},
		{
			"buffer":0,
			"byteLength":5952,
			"byteOffset":1609384,
			"target":34962
		},
		{
			"buffer":0,
			"byteLength":5952,
			"byteOffset":1615336,
			"target":34962
		},
		{
			"buffer":0,
			"byteLength":3968,
			"byteOffset":1621288,
			"target":34962
		},
		{
			"buffer":0,
			"byteLength":3564,
			"byteOffset":1625256,
			"target":34962
		},
		{
			"buffer":0,
			"byteLength":3564,
			"byteOffset":1628820,
			"target":34962
		},
		{
			"buffer":0,
			"byteLength":2376,
			"byteOffset":1632384,
			"target":34962
		},
		{
			"buffer":0,
			"byteLength":24240,
			"byteOffset":1634760,
			"target":34962
		},
		{
			"buffer":0,
			"byteLength":24240,
			"byteOffset":1659000,
			"target":34962
		},
		{
			"buffer":0,
			"byteLength":16160,
			"byteOffset":1683240,
			"target":34962
		},
		{
			"buffer":0,
			"byteLength":5952,
			"byteOffset":1699400,
			"target":34962
		},
		{
			"buffer":0,
			"byteLength":5952,
			"byteOffset":1705352,
			"target":34962
		},
		{
			"buffer":0,
			"byteLength":3968,
			"byteOffset":1711304,
			"target":34962
		},
		{
			"buffer":0,
			"byteLength":3564,
			"byteOffset":1715272,
			"target":34962
		},
		{
			"buffer":0,
			"byteLength":3564,
			"byteOffset":1718836,
			"target":34962
		},
		{
			"buffer":0,
			"byteLength":2376,
			"byteOffset":1722400,
			"target":34962
		}
	],
	"samplers":[
		{
			"magFilter":9729,
			"minFilter":9987
		},
		{
			"magFilter":9729,
			"minFilter":9987,
			"wrapS":33071,
			"wrapT":33071
		}
	],
	"buffers":[
		{
			"byteLength":1724776,
			"uri":"classroom.bin"
		}
	]
}
